<?xml version="1.0" encoding="UTF-8"?>
<!DOCTYPE svg PUBLIC "-//W3C//DTD SVG 1.1//EN" "http://www.w3.org/Graphics/SVG/1.1/DTD/svg11.dtd">
<svg xmlns="http://www.w3.org/2000/svg" version="1.1" width="512px" height="512px" style="shape-rendering:geometricPrecision; text-rendering:geometricPrecision; image-rendering:optimizeQuality; fill-rule:evenodd; clip-rule:evenodd" xmlns:xlink="http://www.w3.org/1999/xlink">
<g><path style="opacity:0.964" fill="#000000" d="M 238.5,47.5 C 328.287,44.2942 395.453,81.2942 440,158.5C 468.338,216.318 471.004,275.318 448,335.5C 418.911,400.584 369.745,441.751 300.5,459C 214.565,474.474 144.065,448.64 89,381.5C 42.746,315.548 34.746,245.215 65,170.5C 100.285,97.9213 158.118,56.9213 238.5,47.5 Z M 240.5,80.5 C 313.079,77.5335 368.579,106.533 407,167.5C 436.843,223.163 438.176,279.496 411,336.5C 372.363,403.411 314.196,434.578 236.5,430C 170.097,420.229 122.597,385.062 94,324.5C 68.8044,258.157 78.1377,197.157 122,141.5C 153.646,105.927 193.146,85.5933 240.5,80.5 Z"/></g>
<g><path style="opacity:0.959" fill="#000000" d="M 242.5,151.5 C 270.465,149.403 292.298,159.737 308,182.5C 319.678,207.684 316.011,230.351 297,250.5C 287.667,258.5 279,267.167 271,276.5C 267.213,283.668 265.546,291.335 266,299.5C 263.436,307.122 258.102,311.122 250,311.5C 238.317,309.504 232.817,302.504 233.5,290.5C 233.864,275.784 238.697,262.784 248,251.5C 258.697,241.137 269.03,230.471 279,219.5C 284.248,202.169 278.081,191.002 260.5,186C 238.056,181.475 223.889,190.309 218,212.5C 209.656,222.237 200.656,222.904 191,214.5C 186.511,206.287 186.511,197.954 191,189.5C 200.976,167.016 218.143,154.35 242.5,151.5 Z"/></g>
<g><path style="opacity:0.925" fill="#000000" d="M 245.5,326.5 C 264.436,327.043 270.27,336.043 263,353.5C 255.231,360.722 247.064,361.222 238.5,355C 230.129,342.701 232.463,333.201 245.5,326.5 Z"/></g>
</svg>
